# xmcd
#
# Track frame offsets: 
#        150
#        2961
#        14705
#        22248
#        40701
#        50871
#        56715
#        65641
#        76631
#        87838
#        99376
#        110861
#        122416
#        136392
#        151321
#        166174
#        178367
#        190664
#        202772
#        216605
#        230592
#        244411
#        258084
#        269794
#        284601
#        298946
#
# Disc length: 4066 seconds
#
# Revision: 0
# Processed by: cddbd v1.5.2PL0 Copyright (c) Steve Scherf et al.
# Submitted via: ExactAudioCopy v0.95b3
#
DISCID=900fe01a
DTITLE=Sidney Bechet  - Volume 10 1941 Complete Edition  FLAC
DYEAR=1900
DGENRE=
TTITLE0=Announcement
TTITLE1=The Blues
TTITLE2=Shim-Me-Sha-Wabble
TTITLE3=The Blues
TTITLE4=The Sheik Of Araby
TTITLE5=Blues Of Bechet
TTITLE6=Blues Of Bechet
TTITLE7=Swing Parade
TTITLE8=Swing Parade
TTITLE9=I Know That You Know
TTITLE10=I Know That You Know
TTITLE11=I Know That You Know
TTITLE12=When It's Sleepy Time Down South
TTITLE13=I Ain't Gonna Give Nobody None Of My Jelly Roll
TTITLE14=I Ain't Gonna Nobody None Of My Jelly Roll
TTITLE15=I'm Coming Virginia
TTITLE16=I'm Coming Virginia
TTITLE17=Limehouse Blues
TTITLE18=Georgia Cabin
TTITLE19=Georgia Cabin
TTITLE20=Texas Moaner Blues
TTITLE21=Texas Moaner Blues
TTITLE22=Strange Fruit
TTITLE23=You're The Limit
TTITLE24=You're The Limit
TTITLE25=Time Of My Hands
EXTD=
EXTT0=
EXTT1=
EXTT2=
EXTT3=
EXTT4=
EXTT5=
EXTT6=
EXTT7=
EXTT8=
EXTT9=
EXTT10=
EXTT11=
EXTT12=
EXTT13=
EXTT14=
EXTT15=
EXTT16=
EXTT17=
EXTT18=
EXTT19=
EXTT20=
EXTT21=
EXTT22=
EXTT23=
EXTT24=
EXTT25=
PLAYORDER=
